# xmcd CD database file
#
# Track frame offsets:
#	182
#	12077
#	24370
#	39610
#	52462
#	67245
#	79022
#	93347
#	104957
#	122367
#	135170
#	145415
#	161187
#
# Disc length: 2361 seconds
#
# Revision: 2
# Processed by: cddbd v1.5PL3 Copyright (c) Steve Scherf et al.
# Submitted via: CDex 1.51
#
DISCID=b609370d
DTITLE=Pacific - Stopy seslapanejch bot
DYEAR=1991
DGENRE=Country
TTITLE0=Stopy seslapanejch bot
TTITLE1=Ten chlap ma konskou naturu
TTITLE2=Studeny slunce
TTITLE3=Divna laska
TTITLE4=Kalendar
TTITLE5=Koukej se hnout
TTITLE6=Stin na kolejich
TTITLE7=Znam vitr
TTITLE8=Svareny vino
TTITLE9=Vlak do zeme blues
TTITLE10=Morska vila
TTITLE11=Poraneny koleno
TTITLE12=Zlaty udoli
EXTD=YEAR: 1991
EXTT0=
EXTT1=
EXTT2=
EXTT3=
EXTT4=
EXTT5=
EXTT6=
EXTT7=
EXTT8=
EXTT9=
EXTT10=
EXTT11=
EXTT12=
PLAYORDER=
